<svg width="14" height="12" viewBox="0 0 14 12" fill="none" xmlns="http://www.w3.org/2000/svg">
<path d="M11.1582 9.26158L11.1187 9.12993L11.0397 8.91928L10.987 8.78762L10.8422 8.5243L10.6447 8.27415L10.3814 8.03717L10.0786 7.76069L9.82846 7.52371L9.59148 7.26039L9.39399 6.99708L9.20967 6.7206L9.01219 6.35196L8.8937 6.10181L8.74887 5.82533L8.56455 5.52252L8.3539 5.24604L8.20908 5.10121L8.06426 4.96956L7.86677 4.82473L7.62979 4.71941L7.32698 4.61408L7.02416 4.57458H6.70819L6.40537 4.61408L5.97091 4.77207L5.5496 5.06172L5.27312 5.3382L5.10197 5.60151L4.93081 5.90432L4.707 6.36512L4.49634 6.77326L4.25936 7.08924L3.96971 7.45788L3.11394 8.24782L3.03495 8.31365L2.83746 8.59013L2.67947 8.90611L2.58731 9.30108L2.53465 9.65656L2.52148 10.0515L2.56098 10.3148L2.67947 10.6835L2.85063 11.0258L3.03495 11.2628L3.27193 11.4998L3.58791 11.7104L3.95655 11.8816L4.23303 11.9474L4.65433 11.9606L5.06247 11.8684L5.31262 11.7499L5.41794 11.6709L5.65493 11.5393L5.87875 11.4076L6.07623 11.2891L6.28688 11.1969L6.45804 11.118L6.65552 11.0653L6.86617 11.0521L7.11632 11.0916L7.30064 11.1311L7.60346 11.2759L7.9721 11.4603L8.27491 11.6577L8.55139 11.8157L8.82787 11.9342L9.09118 11.9869L9.315 12.0001L9.49932 11.9869L9.78897 11.9079L10.1576 11.7367L10.4209 11.5524L10.6974 11.2759L10.8949 11.0126L11.066 10.6572L11.1714 10.3148L11.2109 10.0252V9.72239L11.1977 9.55123L11.1582 9.26158Z" fill="#B5B0AD"/>
<path d="M10.1064 2.32088C10.2242 1.20727 9.68659 0.23754 8.90561 0.154927C8.12464 0.0723141 7.39604 0.908103 7.27824 2.02171C7.16044 3.13533 7.69805 4.10506 8.47902 4.18767C9.25999 4.27028 9.98859 3.43449 10.1064 2.32088Z" fill="#B5B0AD"/>
<path d="M5.24936 4.18235C6.03033 4.09974 6.56794 3.13001 6.45014 2.0164C6.33234 0.902787 5.60374 0.0669979 4.82277 0.149611C4.0418 0.232223 3.50419 1.20195 3.62199 2.31556C3.73979 3.42917 4.46839 4.26496 5.24936 4.18235Z" fill="#B5B0AD"/>
<path d="M12.7159 5.62151C12.9578 4.5356 12.5325 3.5169 11.766 3.34618C10.9994 3.17546 10.182 3.91736 9.94012 5.00327C9.69826 6.08918 10.1236 7.10788 10.8901 7.2786C11.6566 7.44933 12.4741 6.70742 12.7159 5.62151Z" fill="#B5B0AD"/>
<path d="M2.84066 7.27821C3.60719 7.10749 4.03251 6.08879 3.79066 5.00288C3.5488 3.91697 2.73134 3.17506 1.96482 3.34579C1.1983 3.51651 0.772968 4.53521 1.01483 5.62112C1.25668 6.70703 2.07414 7.44893 2.84066 7.27821Z" fill="#B5B0AD"/>
</svg>
